<svg xmlns="http://www.w3.org/2000/svg" xmlns:xlink="http://www.w3.org/1999/xlink" version="1.1" id="a" x="0px" y="0px" viewBox="0 0 210.9 54" style="enable-background:new 0 0 210.9 54;" xml:space="preserve" width="210.9"  height="54" >
<style type="text/css">
	.st0{fill:#FF5023;}
</style>
<path class="st0" d="M48.4,7.6C43.2,2.7,36.5,0,29.6,0H2.6C1.2,0,0,1.2,0,2.7s1.2,2.6,2.6,2.6h26.9c11.5,0,21.6,9.6,22,20.9  c0.2,6.2-2,12.2-6.1,16.4c-3.8,3.9-8.9,6.1-14.4,6.1H17.4c-3.1,0-5.6-2.5-5.6-5.6v-30c0-1.5-1.2-2.6-2.6-2.6s-2.6,1.2-2.6,2.6v30  c0,6,4.9,10.9,10.9,10.9H31c7,0,13.4-2.7,18.2-7.7c5.1-5.3,7.8-12.7,7.6-20.3C56.6,19,53.6,12.5,48.4,7.6L48.4,7.6z M197.6,5.3h10.7  c1.5,0,2.6-1.2,2.6-2.6S209.7,0,208.3,0h-10.7c-1.5,0-2.6,1.2-2.6,2.6S196.1,5.3,197.6,5.3z M208.3,48.7h-12.8  c-0.9,0-1.5-0.7-1.5-1.5v-41c0-3.4-2.8-6.2-6.2-6.2h-13.4c-1.5,0-2.6,1.2-2.6,2.6s1.2,2.6,2.6,2.6h13.4c0.5,0,0.9,0.4,0.9,0.9v41  c0,0.9-0.7,1.5-1.5,1.5h-12.8c-1.5,0-2.6,1.2-2.6,2.6s1.2,2.6,2.6,2.6h12.8c1.6,0,3-0.5,4.2-1.4c1.2,0.9,2.6,1.4,4.2,1.4h12.8  c1.5,0,2.6-1.2,2.6-2.6S209.8,48.7,208.3,48.7L208.3,48.7z M163.8,48.7h-28.9c-3.1,0-5.6-2.5-5.6-5.6V10.9c0-6-4.9-10.9-10.9-10.9  L82.1,0c-9.2,0-16.8,7.5-16.8,16.8V18c0,3.1,0.8,6.1,2.4,8.7c-1.5,2.5-2.4,5.5-2.4,8.7v1.8c0,9.4,7.2,16.8,16.5,16.8h31.5  c1.5,0,2.6-1.2,2.6-2.6s-1.2-2.6-2.6-2.6H81.8c-6.3,0-11.2-5-11.2-11.5v-1.8c0-6.3,5.1-11.5,11.5-11.5h11.3c1.5,0,2.8,1.2,2.8,2.8  s-1.2,2.8-2.8,2.8H82c-1.5,0-3-0.3-4.4-0.9c-1.6,1-2.7,2.5-3.3,4.3c2.3,1.2,5,1.9,7.7,1.9h11.3c4.5,0,8.1-3.6,8.1-8.1  s-3.5-7.9-7.8-8.1c-0.1,0-0.2,0-0.3,0H82c-4,0-7.7,1.4-10.6,3.8c-0.6-1.4-0.9-2.9-0.9-4.4v-1.2c0-6.3,5.1-11.5,11.5-11.5l36.4,0  c3.1,0,5.6,2.5,5.6,5.6v32.2c0,6,4.9,10.9,10.9,10.9h28.9c1.5,0,2.6-1.2,2.6-2.6S165.3,48.7,163.8,48.7L163.8,48.7z"/>
</svg>